<mxfile host="65bd71144e">
    <diagram id="1TPuDABVwJ4t3UQ8o53g" name="Page-1">
        <mxGraphModel dx="878" dy="907" grid="1" gridSize="10" guides="1" tooltips="1" connect="1" arrows="1" fold="1" page="1" pageScale="1" pageWidth="827" pageHeight="1169" math="0" shadow="0">
            <root>
                <mxCell id="0"/>
                <mxCell id="1" parent="0"/>
                <mxCell id="2" value="Vertical Container" style="swimlane;whiteSpace=wrap;html=1;fontSize=15;startSize=30;" vertex="1" parent="1">
                    <mxGeometry x="120" y="40" width="600" height="770" as="geometry"/>
                </mxCell>
            </root>
        </mxGraphModel>
    </diagram>
</mxfile>